PathFileType	4	(X/Y/Z)	C:/Users/beibeiliu/ov580/test_trc/User1\sequence.22_training_dense_right.trc
DataRate	CameraRate	NumFrames	NumMarkers	Units	OrigDataRate	OrigDataStartFrame	OrigNumFrames
120	120	8	19	mm	120	35	273
Frame#	Time	ThumbCMC			ThumbMCP			ThumbIP			ThumbTip			IndexMCP			IndexPIP			IndexTip			MiddleMCP			MiddlePIP			MiddleTip			RingMCP			RingPIP			RingTip			PinkyMCP			PinkyPIP			PinkyTip			BackHand1			BackHand2			BackHand3	
		X0	Y0	Z0	X1	Y1	Z1	X2	Y2	Z2	X3	Y3	Z3	X4	Y4	Z4	X5	Y5	Z5	X6	Y6	Z6	X7	Y7	Z7	X8	Y8	Z8	X9	Y9	Z9	X10	Y10	Z10	X11	Y11	Z11	X12	Y12	Z12	X13	Y13	Z13	X14	Y14	Z14	X15	Y15	Z15	X16	Y16	Z16	X17	Y17	Z17	X18	Y18	Z18	
34	0.283333	176.77	60.8037	63.2864	155.314	74.0525	32.2627	145.181	72.1311	10.5297	134.202	77.7236	-15.1724	178.81	32.0215	-11.5941	158.75	43.7347	-35.5505	134.261	53.2672	-39.9918	164.702	18.3293	-16.198	138.623	38.2084	-20.1666	138.995	51.979	19.056	144.557	6.53198	-4.69868	122.683	28.608	-1.50295	135.037	37.4271	32.3812	131.048	-5.25323	13.1362	116.252	19.6524	14.5902	133.553	29.8008	40.871	170.89	-7.23739	54.9236	173.092	-0.932271	88.5732	194.737	23.4464	63.4682	
35	0.291667	175.021	64.2557	67.5621	153.512	74.3077	31.6015	143.511	76.2209	7.95201	132.936	73.6476	-12.6975	182.443	40.1805	-15.1682	160.351	43.2703	-30.9804	136.226	56.2058	-40.5527	166.188	19.851	-17.0537	138.481	39.941	-19.3079	135.881	50.3191	18.6842	146.256	6.00305	-2.97522	125.249	33.6529	1.03799	135.111	35.5859	35.3378	133.735	-2.22327	11.028	120.386	19.7092	14.2175	135.181	28.9148	43.2961	178.809	-2.70918	53.6692	176.426	1.23813	90.7969	195.772	25.1166	65.7274	
36	0.3	174.164	66.7307	64.3644	150.682	74.5778	35.9126	142.552	74.7658	4.15326	131.213	75.0632	-14.2162	182.99	41.0662	-12.6974	163.578	48.4752	-32.9957	135.201	54.1638	-38.5936	171.48	25.655	-16.4897	141.774	39.6056	-19.7923	138.25	54.6648	18.9034	151.529	9.4776	-3.21706	126.623	32.5836	3.8274	138.636	36.2787	34.7757	138.661	-4.5122	14.5401	120.626	22.5933	20.2033	136.317	32.0161	42.9797	180.92	1.43828	53.2402	181.893	4.58401	85.5256	197.034	31.5845	68.8869	
37	0.308333	169.976	69.1991	68.874	147.874	77.4727	35.9391	140.369	76.1483	3.87734	129.838	73.8614	-15.6103	185.373	47.0284	-9.94935	164.525	48.518	-31.1881	137.157	59.4114	-40.8964	174.317	26.9107	-15.5719	142.243	39.3621	-18.2931	138.977	50.5772	20.2616	156.205	10.797	-3.79389	128.976	32.6692	4.53612	139.671	38.2299	33.7627	141.677	-2.70646	13.2182	124.33	21.551	21.1206	142.432	30.383	46.692	186.136	3.38312	54.8607	184.292	4.35873	86.2976	198.891	36.2784	64.6034	
38	0.316667	167.748	73.1589	70.1311	146.063	77.4945	36.4887	139.675	76.1727	5.47704	128.57	74.1853	-12.8682	185.409	52.9422	-12.1022	165.42	55.6426	-32.5678	135.585	59.6168	-39.1107	177.864	29.2715	-13.3472	146.916	43.758	-19.1644	141.523	54.9747	20.5659	159.959	16.8487	-5.85627	132.095	29.421	0.614257	141.074	38.954	33.3867	151.421	-1.40402	12.8303	128.343	16.7157	16.3283	141.696	30.0625	43.4142	189.233	9.57755	54.7915	188.173	12.1519	86.4725	200.649	41.5513	67.455	
39	0.325	164.516	78.9695	69.7059	145.8	77.1533	32.5861	140.306	73.2432	6.08969	128.9	72.3641	-12.9816	189.774	61.9646	-6.38952	170.181	61.6086	-31.0319	139.456	62.7342	-40.118	182.123	39.3065	-15.3818	147.031	45.7858	-17.0485	143.701	52.0938	21.9365	164.563	17.1875	-6.93693	136.529	31.5173	-0.447097	143.602	38.7084	32.9997	160.288	3.08093	9.53446	134.145	17.9185	14.1587	145.473	28.6175	43.7732	194.052	11.9676	54.0596	189.113	13.5982	89.5844	201.448	49.286	68.5016	
40	0.333333	163.679	79.4586	68.01	143.005	77.1063	35.4779	137.049	75.7624	7.47915	130.557	72.2061	-14.5295	191.056	67.5346	-6.83316	170.196	62.3376	-29.4942	137.799	61.3172	-39.4891	186.02	40.2451	-12.8916	153.447	47.3496	-19.4333	144.012	52.8119	20.6252	173.484	18.5817	-3.97579	141.569	30.4963	-2.82397	142.094	35.3753	30.405	166.465	0.69457	8.65461	139.118	15.1958	11.0831	144.705	26.6249	41.3237	198.73	19.7036	53.9508	194.588	18.085	89.3194	199.01	51.3874	70.2629	
41	0.341667	161.217	78.3161	69.4613	139.497	78.1536	37.198	137.924	73.7373	6.79905	129.051	72.2053	-17.2104	191.113	73.9459	-6.52479	170.671	67.2439	-29.7256	143.246	64.309	-38.7284	188.064	48.321	-14.9787	154.447	46.6667	-18.4552	145.978	50.1525	21.1384	177.451	23.3984	-7.44271	147.36	31.0794	-6.70985	146.939	35.0023	30.7548	176.087	3.14585	9.11682	147.459	18.2101	8.68877	147.088	25.8011	37.1673	203.461	23.2505	56.7276	195.775	22.1161	86.3275	198.985	59.6036	72.3295	
